<?xml version="1.0" standalone="no"?><!DOCTYPE svg PUBLIC "-//W3C//DTD SVG 1.1//EN" "http://www.w3.org/Graphics/SVG/1.1/DTD/svg11.dtd"><svg t="1732618372203" class="icon" viewBox="0 0 1024 1024" version="1.1" xmlns="http://www.w3.org/2000/svg" p-id="4787" width="200" height="200" xmlns:xlink="http://www.w3.org/1999/xlink"><path d="M897.7 1024H126.3C56.9 1024 0 967.2 0 897.7V126.3C0 56.9 56.7 0 126.3 0h771.5c69.4 0 126.3 56.8 126.3 126.3v771.5c-0.1 69.4-56.9 126.2-126.4 126.2z" fill="#ffffff" p-id="4788" data-spm-anchor-id="a313x.search_index.0.i4.59793a81H4BvRI" class="selected"></path><path d="M738 588c-0.6-1.9-1.1-3.2-1.1-3.4L634.6 353l67.6-1.8c15.4-0.7 28.3-10.7 32.8-25.5 4.5-14.8-0.6-30.2-13-39.4L551.7 182.5l-4.5-2.7c-2-1.3-4-2.4-5.7-3.3l-3.3-1.6c-1.2-0.5-2.4-1-3.6-1.4l-1.9-0.7c-30.9-10.3-64 4.3-77.2 34.1L293.2 574.6c-1.9 4.2-3.4 8.5-4.9 12.9-93.5 21.4-160.1 57.8-160.1 108.4 0 86.1 193 131.1 383.7 131.1s383.7-45 383.7-131.1c0-50.2-65.3-86.4-157.6-107.9z m-36.7 33.4c0.9 3.3-0.5 6.9-3.1 8.4-19.6 11.4-51.5 20.6-89.8 26.3 0.6-4.2 0.9-8.4 0.9-12.7 0-6.8-0.7-13.4-2-19.8 34.2-5.2 64.6-12.8 88.9-19.7 1.3 4.2 3.4 10.8 5.1 17.5zM496.4 225.1c3.3-7.4 9.9-10.6 16.3-10.6 1.9 0 3.9 0.3 5.7 0.9l3.1 1.3c0.5 0.3 0.9 0.5 1.4 0.8l147.8 89.9-41.4 1.1c-14 0.7-26.8 8.2-34.2 20.1-7.4 11.9-8.4 26.7-2.7 39.5l85.9 194.3c-23.8 6.6-59.4 13.6-92.2 18.1-17.9-21-44.5-34.4-74.1-34.4-29.1 0-55.2 12.9-73.1 33.3-32.7-3.8-62.9-9.2-91.5-16.8l149-337.5z m68.2 418.3c0 29-23.6 52.6-52.6 52.6s-52.6-23.6-52.6-52.6 23.6-52.6 52.6-52.6 52.6 23.6 52.6 52.6z m-239.9-21.1c1.9-6.6 3.8-13.2 5.2-18.1 27.7 7.6 56.5 13.3 87.3 17.6-1.6 7-2.5 14.2-2.5 21.7 0 4.3 0.4 8.5 0.9 12.7-36.4-5.5-67.2-14-86.9-24.6-3.4-2-5-5.7-4-9.3z m187.2 160c-222.6 0-339-56.3-339-86.4 0-16.9 36.6-41.9 107.8-60.7 3.1 14.8 12.5 28 26.6 35.7 29.6 15.9 75.1 27.4 128.4 33.1 17.8 22.4 45.3 36.9 76.1 36.9 30.9 0 58.4-14.5 76.2-37 55.8-6 103.6-18.4 132.5-35.3 12.4-7.3 20.9-19.3 24.1-32.9 70.1 18.7 106.1 43.5 106.1 60.3 0.2 30-116.2 86.3-338.8 86.3z" fill="#2c2c2c" p-id="4789" data-spm-anchor-id="a313x.search_index.0.i3.59793a81H4BvRI" class=""></path></svg>